# xmcd
#
# Track frame offsets: 
#        150
#        21860
#        42655
#        61742
#        78162
#        94352
#        112345
#        126947
#        147680
#        165127
#        183840
#
# Disc length: 2600 seconds
#
# Revision: 0
# Processed by: cddbd v1.5.1PL0 Copyright (c) Steve Scherf et al.
# Submitted via: ExactAudioCopy v0.95a5
#
DISCID=960a260b
DTITLE=Two Tunes - Verses Of Live
DYEAR=1993
DGENRE=Blues
TTITLE0=Verses Of Life
TTITLE1=No One
TTITLE2=Missing You
TTITLE3=Butterflies
TTITLE4=It´s Real
TTITLE5=Dublin
TTITLE6=In Blue
TTITLE7=Autumn In Paris
TTITLE8=True Intensions
TTITLE9=Borders And Ghettos
TTITLE10=In Your Dreams
EXTD=
EXTT0=
EXTT1=
EXTT2=
EXTT3=
EXTT4=
EXTT5=
EXTT6=
EXTT7=
EXTT8=
EXTT9=
EXTT10=
PLAYORDER=
